<svg xmlns="http://www.w3.org/2000/svg" width="1440" height="320" viewBox="0 0 1440 320">
  <path fill="#f5bb00"
        d="M0,64L30,90.7C60,117,120,171,180,176C240,181,300,139,360,149.3C420,160,480,224,540,250.7C600,277,660,267,720,250.7C780,235,840,213,900,202.7C960,192,1020,192,1080,208C1140,224,1200,256,1260,229.3C1320,203,1380,117,1410,74.7L1440,32L1440,0L1410,0C1380,0,1320,0,1260,0C1200,0,1140,0,1080,0C1020,0,960,0,900,0C840,0,780,0,720,0C660,0,600,0,540,0C480,0,420,0,360,0C300,0,240,0,180,0C120,0,60,0,30,0L0,0Z"></path>
</svg>
